<svg xmlns="http://www.w3.org/2000/svg" viewBox="0 0 178 58"><g fill="none" fill-rule="evenodd"><path fill="#FFF" d="M133.126 48.264c28.851 8.907 40.307 1.73 44.793-.3-11.18 7.05-23.733 8.681-46.75 1.978-23.013-6.704-41.965-9.436-72.131-5.733 15.497-4.65 45.237-4.852 74.088 4.055zm22.95-6.3c-.516 4.11-1.804 3.523-2.309 3.37-.504-.151-1.31-.998-1.31-.998l-.33-.332c1.591.437 2.743-.478 3.95-2.04zM83.137 23.92l7.023 7.67v-7.053h2.438l.015 13.18-6.945-7.145v6.312h-2.531V23.92zm71.424 0l7.023 7.67v-7.053h2.438l.016 13.18-6.945-7.145v6.312h-2.532V23.92zm-25.258.633v8.61c0 .881.632 1.607 1.528 1.607.895 0 1.542-.726 1.542-1.606v-8.611h2.455v8.52c0 2.221-1.821 3.997-4.028 3.997a4.001 4.001 0 01-4.013-3.998v-8.519h2.516zm-56.938-.448l4.985 12.81h-2.531l-.756-1.944H70.42l-.91 1.944h-2.608l5.463-12.81zm48.712 0l4.986 12.81h-2.532l-.756-1.944h-3.642l-.911 1.944h-2.608l5.463-12.81zm31.524.448v2.068h-4.044v4.398h4.044v2.006h-4.044V34.8h4.044v2.115h-6.544l-.016-12.362h6.56zm-86.077-.016c-.339.263-.602.386-.911.71-.972 1.003-1.496 2.1-1.065 3.411.54 1.698 1.868 2.686 1.76 4.661-.093 1.559-.571 2.5-1.528 3.58h-3.117s.447-.292.694-.493c1.049-.865 1.59-1.883 1.543-3.118-.077-2.315-2.222-3.472-1.806-5.91.185-1.128.865-2.362 1.636-2.84h2.794zm35.755-.015v2.115h-2.87v10.262h-2.424V26.637H94.07v-2.115h8.21zm8.843.031v10.232h3.395V36.9h-5.896V24.553h2.5zm28.262 0c2.408 0 4.43 2.022 4.43 4.43 0 1.435-.695 2.638-1.76 3.44a317.17 317.17 0 002.948 4.476h-2.948l-2.253-3.565-.432.03V36.9h-2.5V24.553h2.515zm34.32-.031v2.115h-2.87v10.262h-2.424V26.637h-2.917v-2.115h8.21zm-92.625.015v12.347h-2.531V24.537h2.531zm25.984 4.43c-.882 7.024-3.083 6.021-3.946 5.762-.862-.26-2.24-1.709-2.24-1.709l-.563-.566c2.72.746 4.69-.818 6.749-3.486zm-34.76 1.203l-1.033 2.717h2.083l-1.05-2.717zm48.712 0l-1.033 2.717h2.083l-1.05-2.717zm18.4-3.394v4.274c.941 0 2.068-.988 2.146-2.053.077-1.172-.833-2.16-2.146-2.221z"/><path fill="#FFF" stroke="#FFF" stroke-width=".25" d="M73.95 15.262c1.071 0 1.987.626 2.456 1.542v-1.396h.414v5.752h-.414v-1.385c-.469.905-1.385 1.519-2.457 1.519-1.586 0-2.87-1.34-2.87-2.994 0-1.675 1.284-3.038 2.87-3.038zm19.407-2.412v8.31h-.413v-1.385c-.469.905-1.385 1.519-2.457 1.519-1.586 0-2.871-1.34-2.871-2.994 0-1.675 1.285-3.038 2.87-3.038 1.073 0 1.99.626 2.458 1.542V12.85h.413zm4.946 2.412c1.073 0 1.988.626 2.457 1.542v-1.396h.414v5.752h-.414v-1.385c-.469.905-1.384 1.519-2.457 1.519-1.586 0-2.87-1.34-2.87-2.994 0-1.675 1.284-3.038 2.87-3.038zm6.845 0c1.274 0 2.267.76 2.659 1.921h-.447c-.369-.915-1.184-1.496-2.212-1.496-1.351 0-2.456 1.173-2.456 2.613 0 1.42 1.105 2.58 2.456 2.58 1.061 0 1.877-.58 2.223-1.507h.436c-.38 1.161-1.385 1.92-2.659 1.92-1.586 0-2.87-1.34-2.87-2.993 0-1.675 1.284-3.038 2.87-3.038zm4.232-1.083v1.229h4.01v.413h-4.01v3.16c0 1.107.805 1.9 1.899 1.9 1.106 0 1.9-.793 1.9-1.9v-.703h.413v.704c0 1.34-.973 2.312-2.313 2.312-1.34 0-2.312-.972-2.312-2.312v-4.803h.413zm10.007 1.083c1.586 0 2.882 1.363 2.882 3.038 0 1.653-1.296 2.994-2.882 2.994-1.575 0-2.87-1.34-2.87-2.994 0-1.675 1.295-3.038 2.87-3.038zm-53.31-1.853c1.418 0 2.3.825 2.3 2.144 0 1.273-.926 2.155-2.267 2.155h-2.714v3.452h-.413v-7.751h3.094zm59.786 1.853c1.474 0 2.346.927 2.346 2.424v3.474h-.414v-3.474c0-1.262-.68-2.021-1.943-2.021-1.162 0-2.066.86-2.066 2.021v3.474h-.414v-5.752h.414v.971c.413-.681 1.162-1.117 2.077-1.117zM69.928 12.85v8.31h-.413v-8.31h.413zm10.989 2.412c1.474 0 2.346.927 2.346 2.424v3.474h-.414v-3.474c0-1.262-.68-2.021-1.942-2.021-1.163 0-2.067.86-2.067 2.021v3.474h-.414v-5.752h.414v.971c.413-.681 1.161-1.117 2.077-1.117zm34.437.146v5.752h-.412v-5.752h.412zm4.033.245c-1.352 0-2.458 1.185-2.458 2.647 0 1.43 1.106 2.603 2.458 2.603 1.363 0 2.457-1.173 2.457-2.603 0-1.462-1.094-2.647-2.457-2.647zm-21.084.034c-1.352 0-2.457 1.173-2.457 2.613 0 1.42 1.105 2.58 2.457 2.58 1.351 0 2.457-1.16 2.457-2.58 0-1.44-1.106-2.613-2.457-2.613zm-24.354 0c-1.351 0-2.457 1.173-2.457 2.613 0 1.42 1.106 2.58 2.457 2.58 1.352 0 2.457-1.16 2.457-2.58 0-1.44-1.105-2.613-2.457-2.613zm16.538 0c-1.352 0-2.457 1.173-2.457 2.613 0 1.42 1.105 2.58 2.457 2.58 1.351 0 2.457-1.16 2.457-2.58 0-1.44-1.106-2.613-2.457-2.613zm-24.41-1.866h-2.68v3.474h2.713c.927 0 1.854-.547 1.854-1.742 0-1.095-.692-1.732-1.887-1.732zm29.312-.412v1.228c0 .614-.447.927-.883.927v-.38c.302-.011.48-.223.48-.547v-1.228h.403zm19.965 0v1.027h-.412v-1.027h.412zM144.432 40.597c.939 0 1.95.753 1.95 2.874 0 2.112-1.011 2.874-1.95 2.874-.947 0-1.959-.762-1.959-2.874 0-2.121 1.012-2.874 1.959-2.874zm18.857 0c.94 0 1.952.753 1.952 2.874 0 2.112-1.013 2.874-1.952 2.874-.947 0-1.958-.762-1.958-2.874 0-2.121 1.011-2.874 1.958-2.874zm8.616 0c.867 0 1.466.518 1.628 1.368h-.3c-.145-.68-.623-1.076-1.328-1.076-1.077 0-1.708 1.06-1.716 2.922.267-.688.948-1.182 1.684-1.182 1.036 0 1.765.76 1.765 1.854 0 1.093-.737 1.854-1.798 1.854-.971 0-1.942-.68-1.942-2.567 0-2.015.729-3.173 2.007-3.173zm-31.696 0c1.182 0 1.717.753 1.717 1.506 0 .898-.542 1.343-1.749 2-.996.542-1.53.987-1.587 1.838h3.336v.298h-3.643v-.153c0-1.206.793-1.733 1.757-2.25 1.165-.632 1.586-.988 1.586-1.733 0-.559-.373-1.214-1.417-1.214-.93 0-1.514.639-1.521 1.561h-.3c0-.986.631-1.853 1.821-1.853zm7.797.024v5.618h-.3v-4.775h-.824v-.244c.51-.016.825-.178.866-.599h.258zm3.001 0v5.618h-.3v-4.775h-.825v-.244c.51-.016.825-.178.867-.599h.258zm8.06-.024c1.182 0 1.717.753 1.717 1.506 0 .898-.543 1.343-1.75 2-.996.542-1.53.987-1.586 1.838h3.336v.298h-3.643v-.153c0-1.206.793-1.733 1.756-2.25 1.166-.632 1.587-.988 1.587-1.733 0-.559-.373-1.214-1.417-1.214-.93 0-1.514.639-1.522 1.561h-.3c0-.986.632-1.853 1.822-1.853zm8.566 0c1.183 0 1.717.753 1.717 1.506 0 .898-.543 1.343-1.75 2-.995.542-1.53.987-1.586 1.838h3.336v.298h-3.643v-.153c0-1.206.793-1.733 1.757-2.25 1.165-.632 1.586-.988 1.586-1.733 0-.559-.373-1.214-1.417-1.214-.93 0-1.514.639-1.522 1.561h-.3c0-.986.632-1.853 1.822-1.853zm-23.201.284c-1.045 0-1.66.971-1.66 2.59 0 1.611.615 2.583 1.66 2.583 1.036 0 1.651-.972 1.651-2.583 0-1.619-.615-2.59-1.651-2.59zm18.857 0c-1.044 0-1.66.971-1.66 2.59 0 1.611.616 2.583 1.66 2.583 1.037 0 1.651-.972 1.651-2.583 0-1.619-.614-2.59-1.65-2.59zm8.584 2.04c-.874 0-1.546.703-1.546 1.635 0 .753.608 1.49 1.513 1.49.883 0 1.498-.64 1.498-1.563 0-.931-.59-1.562-1.465-1.562z"/><path fill="#FFFFFE" d="M54.61 29.073c0 14.649-11.876 26.524-26.524 26.524-14.65 0-26.525-11.875-26.525-26.524 0-14.65 11.876-26.524 26.525-26.524 14.648 0 26.524 11.875 26.524 26.524"/><path fill="#C3D97F" d="M52.62 24.494l-.06-.312-.229.22c-6.624 6.386-12.256 9.11-18.83 9.11-4.817 0-10.269-1.415-18.815-4.884-2.238-.909-4.93-1.43-7.385-1.43-1.4 0-2.618.17-3.622.502l-.11.038-.007.117a24.596 24.596 0 001.649 10.24l.14.363.175-.348c1.203-2.404 4.518-3.897 8.651-3.897 1.68 0 3.38.25 5.05.743 3.224.951 5.836 1.945 8.362 2.908 3.695 1.406 7.184 2.736 11.915 3.63 1.301.245 2.51.37 3.59.37 3.492 0 5.405-1.279 7.254-2.515.225-.15.45-.3.677-.448l.044-.03.021-.048a24.554 24.554 0 001.973-9.683c0-1.54-.149-3.103-.443-4.646"/><path fill="#3AAB47" d="M28.744 16.157c-1.683-2.494-3.746-5.238-6.167-8.32 3.114 11.15 1.593 19.296-1.415 23.377-1.385 1.882-3.085 2.905-4.797 2.952.944.122 1.903.314 2.862.597a87.338 87.338 0 015.068 1.675c4.851-5.566 5.786-12.318 4.45-20.28"/><path d="M0 .672h56.591v56.55H0z"/><path fill="#84BF41" d="M40.06 32.65c.764-5.936-1.63-15.31-14.29-27.798 1.343 4.009 2.38 7.776 2.974 11.305 1.337 7.963.402 14.715-4.45 20.28 3.851 1.396 7.05 2.776 10.932 3.868.788-.22 1.505-.608 2.088-1.233 1.105-1.184 2.35-3.34 2.746-6.421"/><path fill="#005D6A" d="M28.296 4.373c13.56 0 24.594 11.033 24.594 24.594a24.45 24.45 0 01-1.96 9.616c-2.676 1.742-4.96 3.783-11.394 2.569-7.893-1.492-12.236-4.167-20.26-6.534-6.054-1.787-12.155-.253-13.904 3.242A24.466 24.466 0 013.7 28.967c0-13.561 11.033-24.594 24.595-24.594zm0-3.701C12.67.672 0 13.34 0 28.967c0 15.628 12.669 28.297 28.296 28.297 15.627 0 28.295-12.669 28.295-28.297C56.59 13.34 43.923.672 28.296.672z"/><path fill="#00A1B8" d="M9.48 44.731c-3.301-5.643 10.373-7.391 23.624-2.124 3.69 1.467 13.25 1.887 17.616-3.733.053-.07.116-.129.168-.199-.02.045-.044.088-.064.133-3.812 8.657-12.465 14.719-22.513 14.719-7.551 0-14.315-3.423-18.83-8.796"/><path fill="#DDEFEA" d="M29.099 44.309c-4.842-1.925-15.986-3.836-15.338.7-.607.647-.91 1.073 1.085 1.405 1.841.307 2.762.833 6.71 3.158.544.32 1.042.53 1.507.67.628.259 1.306.493 2.045.689 5.297 1.404 10.306.307 18.42-5.613-6.623 3.464-7.15 1.886-14.43-1.01"/><path fill="#FFFFFE" d="M42.957 44.704c-.965-.526-3.464.658-5.086-.176.57.951 1.473 1.537 3.502 1.448-4.82 1.39-5.852.887-12.274-1.667-4.92-1.956-16.358-3.903-15.306.922 1.42-1.014 4.23-1.102 7.212-.66l-.063.001c2.543.439 4.736 2.895 5.657 3.991.92 1.097-1.053-2.85 1.973-1.754.192.07.362.125.513.17 3.862 1.723 6.867 3.323 13.056-.705l-.06.096c1.359-.965 2.98-.176 5.48-3.771-2.192 1.973-4.034 1.228-4.604 2.105"/></g></svg>